PathFileType	4	(X/Y/Z)	/Volumes/GoogleDrive/My Drive/Research/Stanford/Projects/Digital Athlete Project/Sprinting/Sprint Simulation/sprinter/subjects/JA1/experimental_data/TRC/run0900cms.trc
DataRate	CameraRate	NumFrames	NumMarkers	Units	OrigDataRate	OrigDataStartFrame	OrigNumFrames
250.000000	250.000000	4	53	mm	250.000000	81	323
Frame#	Time	C7			RSH			LSH			MAN			T7			LARM			LELB			LFOREARM			LWR			RARM			RELB			RFOREARM			RWR			RASI			LASI			SACR			P1			P2			P3			LTHLP			LTHLD			LTHAP			LTHAD			LLEPI			LPAT			LTIAP			LTIAD			LTILAT			LLMAL			LHEEL			LMFS			LMFL			LP1MT			LTOE			LP5MT			RTHLP			RTHLD			RTHAP			RTHAD			RLEPI			RPAT			RTIAP			RTIAD			RTILAT			RLMAL			RHEEL			RMFS			RMFL			RP1MT			RTOE			RP5MT			x52			x53			
		X1	Y1	Z1	X2	Y2	Z2	X3	Y3	Z3	X4	Y4	Z4	X5	Y5	Z5	X6	Y6	Z6	X7	Y7	Z7	X8	Y8	Z8	X9	Y9	Z9	X10	Y10	Z10	X11	Y11	Z11	X12	Y12	Z12	X13	Y13	Z13	X14	Y14	Z14	X15	Y15	Z15	X16	Y16	Z16	X17	Y17	Z17	X18	Y18	Z18	X19	Y19	Z19	X20	Y20	Z20	X21	Y21	Z21	X22	Y22	Z22	X23	Y23	Z23	X24	Y24	Z24	X25	Y25	Z25	X26	Y26	Z26	X27	Y27	Z27	X28	Y28	Z28	X29	Y29	Z29	X30	Y30	Z30	X31	Y31	Z31	X32	Y32	Z32	X33	Y33	Z33	X34	Y34	Z34	X35	Y35	Z35	X36	Y36	Z36	X37	Y37	Z37	X38	Y38	Z38	X39	Y39	Z39	X40	Y40	Z40	X41	Y41	Z41	X42	Y42	Z42	X43	Y43	Z43	X44	Y44	Z44	X45	Y45	Z45	X46	Y46	Z46	X47	Y47	Z47	X48	Y48	Z48	X49	Y49	Z49	X50	Y50	Z50	X51	Y51	Z51	X52	Y52	Z52	X53	Y53	Z53	
81	0.324000	-2913.661621	1508.950806	186.959610	-2885.222900	1468.071045	362.990234	-2864.053223	1511.709717	29.936951	-2800.632812	1389.129028	204.892731	-3017.928223	1338.159424	158.614059	-2859.878662	1314.191772	-72.000870	-2850.082520	1176.564331	-94.609177	-2724.984619	1163.090454	-13.467399	-2619.206787	1141.460938	50.699646	-3031.514160	1367.943604	439.502899	-3152.426514	1303.340332	483.047882	-3149.054932	1152.141968	497.714600	-3159.379883	1017.396423	496.400146	-2866.254639	1043.742920	256.019684	-2882.695312	1016.741272	45.507256	-3056.336426	1082.880493	170.405914	-3069.258301	1056.498535	119.211349	-3073.418701	1054.060425	224.927887	-3099.769531	999.878540	171.386993	-3076.233887	750.313354	-14.241930	-3104.490723	640.147522	-4.037329	-2947.503662	695.814148	48.724319	-2996.440186	589.430298	57.291191	-3142.884766	538.876526	18.499258	-3091.864990	457.695190	75.443176	-3294.458252	568.880859	110.760193	-3409.385498	646.149414	124.726425	-3338.837891	640.736084	44.484650	-3523.590576	746.711304	82.976219	-3490.544189	811.028076	128.441452	-3596.594971	679.999390	152.147491	-3607.397217	723.365479	92.369308	-3673.289062	685.434448	206.582886	-3684.052490	656.302063	170.260468	-3692.536133	713.590149	87.238495	-2850.164307	804.470459	359.379700	-2762.484131	732.438416	350.258728	-2733.067383	863.078430	287.391083	-2676.516357	790.896790	273.768799	-2656.974854	630.425842	314.056152	-2572.901367	674.177979	265.135895	-2573.870605	437.453064	223.722733	-2550.667480	313.657990	201.220947	-2613.613037	407.705658	299.916473	-2547.167480	179.101181	241.575043	-2600.859863	138.374664	183.100739	-2440.477295	208.777115	209.134674	-2470.871826	150.530350	248.212189	-2368.309326	191.813797	164.821823	-2358.332520	206.843155	212.206741	-2386.801758	125.156708	268.593262	-3165.154053	942.041992	495.665039	-2565.445312	1130.467773	83.312553
82	0.328000	-2876.593750	1508.350952	188.128403	-2845.480225	1465.858521	364.078247	-2824.886719	1510.033569	29.274498	-2762.497314	1387.820679	204.254807	-2980.556152	1339.212036	159.560211	-2829.121094	1312.268433	-72.310051	-2824.026855	1174.205566	-95.513596	-2697.194092	1145.482666	-18.884121	-2592.594482	1109.856567	40.933506	-2988.777344	1360.957764	442.920990	-3106.456299	1292.068848	488.462341	-3096.196533	1141.067139	500.044617	-3100.250977	1006.149109	496.314423	-2830.419922	1044.455933	256.608368	-2846.527832	1017.603210	45.289398	-3020.095459	1082.188599	170.577744	-3033.727539	1055.746216	119.358315	-3037.081543	1053.870972	225.508530	-3063.901855	999.239319	171.688004	-3032.574463	746.688782	-15.389795	-3057.369141	635.950378	-4.808494	-2902.660889	696.144958	48.594769	-2948.016357	587.728088	55.869064	-3091.928223	534.430298	16.931967	-3040.222412	453.313477	74.514648	-3240.183594	569.012451	110.632057	-3351.923340	650.802063	125.536957	-3282.637939	642.156921	44.690487	-3461.345947	755.601074	84.732597	-3427.221436	818.743225	130.848755	-3537.295410	690.539673	152.050797	-3545.611572	734.129395	92.944687	-3615.883545	697.590637	204.079742	-3626.036865	669.098206	168.142761	-3631.010254	727.800598	84.917198	-2818.550781	801.318420	360.326843	-2732.485596	727.256653	351.200623	-2699.443604	856.280273	290.777618	-2644.571533	784.809082	277.721954	-2629.323242	623.018127	315.005951	-2544.500488	668.222717	269.199127	-2548.061035	429.757355	223.349030	-2526.793457	306.118835	199.411804	-2591.321289	399.298859	296.874939	-2528.263672	170.766464	237.531586	-2580.854492	132.446442	175.550339	-2419.383545	198.184601	208.802170	-2453.205811	140.521423	245.695404	-2345.817139	179.550400	167.355286	-2337.559326	194.009644	215.609406	-2370.828125	112.298042	269.564026	-3102.518555	930.698181	494.228363	-2539.431641	1091.749512	71.335823
83	0.332000	-2838.023926	1507.578979	189.202957	-2805.740479	1463.547852	365.138367	-2786.508545	1507.872192	28.593376	-2724.503906	1386.396118	203.709946	-2944.125244	1339.936646	160.222961	-2798.587891	1310.648560	-72.501495	-2797.442383	1171.727173	-96.253387	-2671.449951	1127.782715	-23.813288	-2568.927002	1078.546265	30.483561	-2945.577637	1353.477173	446.426086	-3059.753662	1280.251709	493.811554	-3042.631836	1129.889893	502.247284	-3040.481445	995.153198	495.990143	-2794.834473	1044.478516	257.091949	-2810.214111	1018.091309	45.124016	-2985.005615	1081.923828	170.668457	-2997.712158	1055.018188	119.509544	-3001.638672	1053.614746	225.640594	-3028.056885	998.604431	171.890457	-2988.473633	742.724670	-16.532711	-3009.655273	631.625732	-5.764267	-2858.037598	696.289124	48.656525	-2899.243408	586.286438	54.851040	-3040.025146	530.020935	15.327057	-2987.556396	449.078796	73.337547	-3185.023438	568.398865	110.568481	-3294.096924	653.930908	126.212418	-3225.924805	642.682129	44.586781	-3398.920410	762.880127	85.740044	-3364.139893	824.838928	133.119888	-3477.098877	699.284241	151.884796	-3483.461670	743.205872	92.915451	-3557.007812	707.606750	201.851959	-3566.937500	679.373230	165.848633	-3568.642822	738.661072	82.842728	-2787.122803	798.207642	361.365204	-2702.478027	722.430054	351.921387	-2665.879150	849.845154	294.278595	-2612.277344	779.729431	282.059326	-2601.858887	615.698975	315.903503	-2516.370117	662.161011	273.482391	-2523.311035	422.023651	222.646576	-2504.614990	298.378235	197.667252	-2569.824707	391.177155	294.177643	-2511.563232	162.310089	233.222916	-2562.690674	126.883713	168.296967	-2400.556885	187.082443	207.973450	-2435.852539	130.264008	243.957840	-2326.118652	166.360397	169.087646	-2319.471191	179.794632	217.673798	-2357.498779	98.801788	269.702728	-3039.279053	919.803711	492.490936	-2516.819580	1053.521851	58.079941
84	0.336000	-2799.817627	1506.728882	190.595810	-2765.980713	1461.178223	366.113739	-2748.597656	1505.768921	28.016481	-2686.423584	1384.856445	203.280991	-2907.106201	1340.135010	161.090393	-2767.130127	1308.936523	-72.044456	-2769.997070	1169.277954	-96.744041	-2646.366455	1110.609131	-29.668413	-2547.656494	1048.133179	18.760284	-2901.845703	1345.558350	450.042480	-3012.303955	1268.092285	499.132080	-2988.298096	1118.735962	504.338074	-2980.026611	984.478455	495.490479	-2759.650879	1044.001099	257.344940	-2773.850586	1018.207458	45.151161	-2949.412354	1081.525513	170.906738	-2961.510986	1054.462891	119.430847	-2966.290527	1053.473999	225.829803	-2992.199463	998.216370	171.921051	-2943.864258	738.480713	-17.552120	-2961.387695	626.151978	-6.558560	-2812.522949	696.532593	48.762409	-2849.632812	584.885864	54.019024	-2987.958252	525.811340	13.796555	-2934.415771	445.005402	72.733093	-3129.239502	567.511353	110.308723	-3235.224121	656.718140	126.765526	-3168.417236	642.863403	44.968735	-3336.196045	768.464600	86.930656	-3301.153809	829.724487	134.936569	-3416.325928	706.077515	152.152878	-3420.451660	750.285706	92.233597	-3497.246826	715.204346	199.561874	-3507.301758	687.299683	163.542053	-3505.545410	747.013977	80.584564	-2755.428467	795.176941	362.534821	-2672.392334	717.961243	352.335968	-2632.836182	844.033936	297.797180	-2579.533447	775.148804	287.002533	-2574.699219	608.421204	316.679901	-2488.755859	655.841980	277.395691	-2499.720459	414.004486	221.978928	-2483.952393	290.286621	195.791153	-2548.973145	383.555389	291.706512	-2496.342773	154.129990	229.018066	-2546.893555	121.680984	161.880829	-2383.619629	175.674393	206.939453	-2423.308350	119.779869	239.892990	-2309.128662	152.371582	169.365311	-2303.532715	165.012466	218.566910	-2345.926758	84.739540	268.434845	-2975.400879	909.396912	490.542603	-2497.487305	1016.379761	43.374176
